# xmcd
#
# Track frame offsets: 
#        150
#        11177
#        22655
#        35157
#        50535
#        64865
#        75940
#        86949
#        98680
#        110130
#        125584
#
# Disc length: 1843 seconds
#
# Revision: 0
# Processed by: cddbd v1.5.2PL0 Copyright (c) Steve Scherf et al.
# Submitted via: ExactAudioCopyFreeDBPlugin 1.0
#
DISCID=8c07310b
DTITLE=Harry Middlebrooks - Funny How Time Slips Away
DYEAR=1968
DGENRE=Pop
TTITLE0=Turn The World Around
TTITLE1=Leave Your Memory Behind
TTITLE2=Funny How Time Slips Away
TTITLE3=Laura (What's He Got That I Ain't Got)
TTITLE4=Love Can Move Mountains
TTITLE5=Turn Around, Look At Me
TTITLE6=I Love You So Much It Hurts
TTITLE7=The End Of The World
TTITLE8=I'm A Fool For Loving You
TTITLE9=Endlessly
TTITLE10=You're The Reason I'm Living
EXTD=
EXTT0=
EXTT1=
EXTT2=
EXTT3=
EXTT4=
EXTT5=
EXTT6=
EXTT7=
EXTT8=
EXTT9=
EXTT10=
PLAYORDER=
